<?xml version="1.0" encoding="utf-8"?>
<!DOCTYPE svg PUBLIC "-//W3C//DTD SVG 1.1//EN"
    "http://www.w3.org/Graphics/SVG/1.1/DTD/svg11.dtd">
<svg width="16px" height="16px" xmlns="http://www.w3.org/2000/svg" version="1.1">
    <title>xcatliu</title>
    <g fill="none" stroke="#000" stroke-linecap="round" stroke-linejoin="round" stroke-width="0.5px">
        <g fill="#FB5">
            <path d="
                    M 1 1
                    C 1 1 2 4 1 8
                    C 0 12 1 14 4 15
                    C 5.5 15.5 9.5 15.5 11 15
                    C 14 14 15 12 15 9
                    C 15 3 12 1 12 1
                    C 12 1 13 4.5 12 6
                    C 10 5 6 5 4 6
                    C 3.5 2.5 1 1 1 1
                    z
                "
            />
        </g>
        <g stroke-width="0.7px">
            <path d="
                    M 9 10
                    c 1 -1 3.5 -1 4.5 0
                "
            />
            <path d="
                    M 2.5 10
                    c 1 -1 3.5 -1 4.5 0
                "
            />
        </g>
        <g stroke-width="0.6px">
            <path d="
                    M 5.75 12
                    c -0.25 2 2 2 2.25 0
                    c -0.25 2 2 2 2.25 0
                "
            />
        </g>
        <g stroke-width="0.4px">
            <path d="
                    M 3 12
                    c -1.5 0.25 -2.5 1.5 -2.5 1.5
                "
            />
            <path d="
                    M 3.25 13
                    c -1 0.25 -2 1.5 -2 1.5
                "
            />
            <path d="
                    M 3.75 14
                    c -0.5 0.25 -1.25 1.25 -1.25 1.25
                "
            />
            <path d="
                    M 12.5 11.75
                    c 2 0 3 0.75 3 0.75
                "
            />
            <path d="
                    M 12.25 12.75
                    c 1.75 0 2.75 1 2.75 1
                "
            />
            <path d="
                    M 11.5 13.75
                    c 1.5 0 2.5 1.25 2.5 1.25
                "
            />
        </g>
    </g>
</svg>
