<?xml version="1.0" encoding="utf-8"?>
<!-- Generator: Adobe Illustrator 16.0.0, SVG Export Plug-In . SVG Version: 6.00 Build 0)  -->
<!DOCTYPE svg PUBLIC "-//W3C//DTD SVG 1.1//EN" "http://www.w3.org/Graphics/SVG/1.1/DTD/svg11.dtd">
<svg version="1.1" xmlns="http://www.w3.org/2000/svg" xmlns:xlink="http://www.w3.org/1999/xlink" x="0px" y="0px"
	 width="512px" height="512px" viewBox="0 0 512 512" enable-background="new 0 0 512 512" xml:space="preserve">
<path d="M420.968,175.88c-5.312-1.829-10.815-3.558-16.481-5.194c0.931-3.801,1.785-7.553,2.546-11.241
	c12.477-60.563,4.319-109.352-23.537-125.415c-26.71-15.403-70.392,0.656-114.509,39.051c-4.242,3.691-8.496,7.6-12.749,11.697
	c-2.834-2.71-5.662-5.33-8.484-7.835c-46.235-41.052-92.58-58.353-120.408-42.243c-26.685,15.448-34.586,61.314-23.355,118.709
	c1.085,5.544,2.353,11.206,3.785,16.961c-6.559,1.862-12.891,3.847-18.949,5.959C34.619,195.227,0,224.846,0,255.568
	c0,31.731,37.163,63.559,93.624,82.856c4.455,1.522,9.079,2.963,13.843,4.329c-1.547,6.226-2.892,12.326-4.021,18.276
	c-10.709,56.399-2.347,101.183,24.267,116.532c27.49,15.853,73.624-0.441,118.548-39.71c3.55-3.104,7.114-6.396,10.684-9.847
	c4.627,4.456,9.247,8.673,13.842,12.628c43.513,37.444,86.49,52.564,113.078,37.172c27.463-15.896,36.389-64.005,24.801-122.536
	c-0.885-4.47-1.915-9.037-3.071-13.686c3.239-0.958,6.421-1.945,9.521-2.974C473.812,319.163,512,287.724,512,255.568
	C512,224.735,476.266,194.916,420.968,175.88L420.968,175.88L420.968,175.88z"/>
<path fill="#FFFFFF" d="M408.237,317.849c-2.8,0.926-5.673,1.822-8.601,2.69c-6.479-20.514-15.224-42.326-25.927-64.863
	c10.212-22,18.62-43.535,24.919-63.915c5.236,1.516,10.32,3.113,15.22,4.801c47.379,16.311,76.28,40.426,76.28,59.007
	C490.129,275.361,458.916,301.056,408.237,317.849L408.237,317.849L408.237,317.849z M387.209,359.517
	c5.123,25.883,5.854,49.282,2.461,67.576c-3.05,16.437-9.182,27.396-16.765,31.784c-16.136,9.34-50.641-2.8-87.855-34.824
	c-4.265-3.671-8.563-7.59-12.873-11.738c14.427-15.779,28.846-34.121,42.918-54.493c24.752-2.196,48.136-5.787,69.342-10.689
	C385.481,351.345,386.408,355.478,387.209,359.517L387.209,359.517L387.209,359.517z M174.553,457.263
	c-15.765,5.568-28.32,5.728-35.91,1.352c-16.15-9.315-22.864-45.272-13.706-93.506c1.05-5.522,2.298-11.196,3.737-16.996
	c20.973,4.638,44.187,7.975,68.996,9.986c14.168,19.935,29.003,38.257,43.952,54.301c-3.266,3.153-6.52,6.155-9.755,8.984
	C212.003,438.747,192.097,451.067,174.553,457.263L174.553,457.263L174.553,457.263z M100.697,317.727
	c-24.966-8.532-45.583-19.623-59.716-31.725c-12.699-10.875-19.109-21.672-19.109-30.434c0-18.643,27.795-42.423,74.152-58.585
	c5.625-1.961,11.514-3.811,17.624-5.546c6.407,20.841,14.812,42.631,24.954,64.664c-10.274,22.362-18.798,44.498-25.268,65.584
	C108.979,320.432,104.759,319.114,100.697,317.727L100.697,317.727L100.697,317.727z M125.454,149.208
	c-9.622-49.174-3.232-86.271,12.85-95.579c17.128-9.917,55.005,4.222,94.927,39.669c2.551,2.266,5.113,4.637,7.683,7.091
	c-14.877,15.973-29.575,34.158-43.617,53.975c-24.079,2.231-47.129,5.817-68.322,10.618
	C127.642,159.622,126.461,154.356,125.454,149.208L125.454,149.208L125.454,149.208z M346.309,203.743
	c-5.066-8.751-10.268-17.295-15.57-25.605c16.336,2.064,31.988,4.806,46.687,8.161c-4.413,14.144-9.913,28.929-16.388,44.088
	C356.394,221.568,351.481,212.679,346.309,203.743L346.309,203.743L346.309,203.743z M256.245,116.021
	c10.088,10.93,20.191,23.133,30.128,36.373c-10.013-0.474-20.15-0.719-30.373-0.719c-10.124,0-20.188,0.24-30.141,0.705
	C235.808,139.263,245.998,127.076,256.245,116.021L256.245,116.021L256.245,116.021z M165.604,203.894
	c-5.061,8.776-9.883,17.619-14.454,26.477c-6.369-15.106-11.817-29.96-16.269-44.303c14.607-3.27,30.185-5.943,46.417-7.969
	C175.923,186.486,170.679,195.093,165.604,203.894L165.604,203.894L165.604,203.894z M181.767,334.599
	c-16.771-1.87-32.582-4.406-47.188-7.585c4.522-14.599,10.092-29.77,16.597-45.201c4.583,8.852,9.423,17.697,14.515,26.492h0.001
	C170.878,317.265,176.251,326.04,181.767,334.599L181.767,334.599L181.767,334.599z M256.85,396.659
	c-10.366-11.185-20.707-23.558-30.806-36.865c9.803,0.385,19.799,0.581,29.956,0.581c10.436,0,20.753-0.235,30.906-0.688
	C276.937,373.236,266.87,385.627,256.85,396.659L256.85,396.659L256.85,396.659z M361.246,281.026
	c6.844,15.598,12.612,30.689,17.192,45.039c-14.845,3.387-30.873,6.114-47.76,8.142c5.315-8.422,10.562-17.113,15.718-26.053
	C351.611,299.11,356.564,290.053,361.246,281.026L361.246,281.026L361.246,281.026z M327.45,297.228
	c-8.004,13.876-16.222,27.125-24.563,39.629c-15.193,1.087-30.89,1.646-46.888,1.646c-15.934,0-31.432-0.494-46.356-1.463
	c-8.677-12.669-17.072-25.956-25.025-39.692h0.002c-7.932-13.699-15.231-27.516-21.846-41.252
	c6.612-13.771,13.893-27.601,21.779-41.276l-0.002,0.003c7.907-13.712,16.229-26.934,24.826-39.523
	c15.227-1.15,30.842-1.751,46.621-1.751H256c15.852,0,31.485,0.605,46.708,1.766c8.467,12.498,16.731,25.676,24.67,39.39
	c8.028,13.867,15.402,27.605,22.072,41.08C342.801,269.489,335.442,283.366,327.45,297.228L327.45,297.228L327.45,297.228z
	 M372.569,52.978c17.146,9.888,23.813,49.763,13.042,102.052c-0.688,3.337-1.462,6.734-2.302,10.179
	c-21.242-4.901-44.309-8.548-68.458-10.814c-14.069-20.035-28.648-38.249-43.282-54.016c3.935-3.785,7.863-7.394,11.775-10.799
	C321.145,56.684,356.474,43.697,372.569,52.978L372.569,52.978L372.569,52.978z"/>
<path d="M256,209.848c25.251,0,45.721,20.47,45.721,45.72c0,25.251-20.47,45.721-45.721,45.721c-25.25,0-45.72-20.47-45.72-45.721
	C210.28,230.318,230.75,209.848,256,209.848"/>
</svg>
