<?xml version="1.0" encoding="utf-8"?>
<!-- Generator: Adobe Illustrator 16.0.0, SVG Export Plug-In . SVG Version: 6.00 Build 0)  -->
<!DOCTYPE svg PUBLIC "-//W3C//DTD SVG 1.1//EN" "http://www.w3.org/Graphics/SVG/1.1/DTD/svg11.dtd">
<svg version="1.1" xmlns="http://www.w3.org/2000/svg" xmlns:xlink="http://www.w3.org/1999/xlink" x="0px" y="0px"
	 width="1024px" height="1024px" viewBox="0 0 1024 1024" enable-background="new 0 0 1024 1024" xml:space="preserve">
<title>Reacat</title>
<g>
	<g>
		<path fill="#FFBB55" stroke="#000000" stroke-width="32" stroke-linecap="round" stroke-linejoin="round" d="M64,64
			c0,0,64,192,0,448S16,896,256,960c96,32,352,32,448,0c192-64,256-192,256-384c0-384-192-512-192-512s64,224,0,320
			c-128-64-384-64-512,0C224,160,64,64,64,64z"/>
	</g>
	<g>
		<path fill="none" stroke="#000000" stroke-width="45" stroke-linecap="round" stroke-linejoin="round" d="M576,640
			c64-64,224-64,288,0"/>
		<path fill="none" stroke="#000000" stroke-width="45" stroke-linecap="round" stroke-linejoin="round" d="M160,640
			c64-64,224-64,288,0"/>
	</g>
	<g>
		<path fill="none" stroke="#000000" stroke-width="38" stroke-linecap="round" stroke-linejoin="round" d="M368,768
			c-16,128,128,128,144,0c-16,128,128,128,144,0"/>
	</g>
	<g>
		<path fill="none" stroke="#000000" stroke-width="25" stroke-linecap="round" stroke-linejoin="round" d="M192,768
			c-96,16-160,96-160,96"/>
		<path fill="none" stroke="#000000" stroke-width="25" stroke-linecap="round" stroke-linejoin="round" d="M208,832
			c-64,16-128,96-128,96"/>
		<path fill="none" stroke="#000000" stroke-width="25" stroke-linecap="round" stroke-linejoin="round" d="M240,896
			c-32,16-80,80-80,80"/>
		<path fill="none" stroke="#000000" stroke-width="25" stroke-linecap="round" stroke-linejoin="round" d="M800,752
			c128,0,192,48,192,48"/>
		<path fill="none" stroke="#000000" stroke-width="25" stroke-linecap="round" stroke-linejoin="round" d="M784,816
			c112,0,176,64,176,64"/>
		<path fill="none" stroke="#000000" stroke-width="25" stroke-linecap="round" stroke-linejoin="round" d="M736,880
			c96,0,160,80,160,80"/>
	</g>
</g>
<g>
	<path d="M676.965,175.881c-5.312-1.829-10.815-3.558-16.48-5.195c0.931-3.8,1.787-7.552,2.545-11.241
		c12.479-60.562,4.32-109.352-23.536-125.414c-26.709-15.403-70.391,0.656-114.509,39.05c-4.239,3.691-8.496,7.6-12.749,11.697
		c-2.833-2.71-5.661-5.33-8.483-7.836C457.517,35.89,411.172,18.59,383.344,34.7c-26.684,15.448-34.586,61.314-23.355,118.709
		c1.084,5.544,2.352,11.206,3.785,16.961c-6.56,1.862-12.891,3.847-18.95,5.959C290.619,195.228,256,224.846,256,255.568
		c0,31.731,37.163,63.558,93.623,82.855c4.456,1.522,9.079,2.962,13.844,4.33c-1.547,6.225-2.893,12.326-4.021,18.276
		c-10.708,56.399-2.346,101.182,24.267,116.531c27.489,15.853,73.624-0.441,118.547-39.71c3.55-3.104,7.114-6.396,10.683-9.845
		c4.629,4.455,9.249,8.672,13.843,12.627c43.512,37.443,86.489,52.564,113.078,37.172c27.462-15.896,36.389-64.004,24.801-122.535
		c-0.886-4.47-1.914-9.038-3.072-13.685c3.24-0.958,6.419-1.947,9.522-2.974C729.811,319.163,768,287.723,768,255.568
		C768,224.735,732.262,194.917,676.965,175.881L676.965,175.881L676.965,175.881z"/>
	<path fill="#FFFFFF" d="M664.235,317.849c-2.801,0.925-5.673,1.822-8.6,2.69c-6.479-20.515-15.226-42.327-25.929-64.863
		c10.215-22,18.622-43.535,24.922-63.915c5.234,1.516,10.321,3.113,15.22,4.8c47.375,16.311,76.28,40.426,76.28,59.007
		C746.129,275.361,714.914,301.055,664.235,317.849L664.235,317.849L664.235,317.849z M643.206,359.516
		c5.125,25.882,5.854,49.282,2.463,67.575c-3.052,16.437-9.182,27.396-16.765,31.785c-16.136,9.338-50.642-2.801-87.855-34.825
		c-4.267-3.671-8.563-7.59-12.874-11.738c14.428-15.779,28.847-34.121,42.919-54.493c24.752-2.196,48.133-5.787,69.342-10.689
		C641.479,351.344,642.407,355.477,643.206,359.516L643.206,359.516L643.206,359.516z M430.552,457.262
		c-15.766,5.567-28.321,5.726-35.911,1.351c-16.149-9.315-22.863-45.272-13.706-93.504c1.05-5.523,2.298-11.197,3.737-16.996
		c20.973,4.638,44.187,7.975,68.997,9.986c14.168,19.934,29.002,38.256,43.952,54.3c-3.266,3.152-6.52,6.155-9.754,8.983
		C468.002,438.746,448.095,451.065,430.552,457.262L430.552,457.262L430.552,457.262z M356.696,317.726
		c-24.965-8.533-45.583-19.623-59.715-31.725c-12.699-10.875-19.109-21.671-19.109-30.433c0-18.643,27.795-42.423,74.152-58.585
		c5.625-1.961,11.513-3.811,17.624-5.547c6.407,20.841,14.812,42.632,24.954,64.664c-10.273,22.362-18.798,44.498-25.267,65.584
		C364.978,320.432,360.758,319.114,356.696,317.726L356.696,317.726L356.696,317.726z M381.453,149.208
		c-9.621-49.174-3.231-86.271,12.85-95.579c17.128-9.917,55.005,4.222,94.927,39.669c2.551,2.267,5.113,4.638,7.682,7.091
		c-14.876,15.974-29.575,34.159-43.616,53.975c-24.08,2.232-47.13,5.818-68.323,10.618
		C383.641,159.622,382.46,154.357,381.453,149.208L381.453,149.208L381.453,149.208z M602.309,203.744
		c-5.066-8.752-10.268-17.296-15.572-25.605c16.338,2.063,31.989,4.806,46.687,8.16c-4.412,14.144-9.91,28.93-16.386,44.088
		C612.394,221.568,607.48,212.679,602.309,203.744L602.309,203.744L602.309,203.744z M512.244,116.021
		c10.09,10.93,20.193,23.132,30.129,36.373c-10.014-0.474-20.15-0.72-30.374-0.72c-10.125,0-20.188,0.241-30.14,0.705
		C491.807,139.263,501.998,127.076,512.244,116.021L512.244,116.021L512.244,116.021z M421.604,203.894
		c-5.061,8.776-9.883,17.619-14.454,26.477c-6.368-15.106-11.818-29.961-16.268-44.303c14.607-3.269,30.185-5.942,46.417-7.968
		C431.922,186.487,426.677,195.093,421.604,203.894L421.604,203.894L421.604,203.894z M437.767,334.598
		c-16.771-1.87-32.583-4.406-47.188-7.584c4.522-14.599,10.092-29.771,16.596-45.201c4.583,8.851,9.423,17.697,14.515,26.492h0.001
		C426.876,317.264,432.251,326.04,437.767,334.598L437.767,334.598L437.767,334.598z M512.849,396.659
		c-10.366-11.185-20.707-23.558-30.805-36.866c9.803,0.386,19.798,0.581,29.956,0.581c10.437,0,20.753-0.235,30.907-0.687
		C532.936,373.235,522.869,385.626,512.849,396.659L512.849,396.659L512.849,396.659z M617.245,281.026
		c6.842,15.598,12.612,30.689,17.193,45.039c-14.847,3.387-30.874,6.115-47.76,8.141c5.313-8.421,10.56-17.113,15.717-26.053
		C607.609,299.11,612.563,290.052,617.245,281.026L617.245,281.026L617.245,281.026z M583.449,297.227
		c-8.003,13.877-16.222,27.125-24.563,39.629c-15.193,1.086-30.889,1.645-46.888,1.645c-15.933,0-31.432-0.494-46.356-1.462
		c-8.677-12.669-17.073-25.956-25.026-39.693h0.002c-7.931-13.699-15.231-27.515-21.846-41.251
		c6.613-13.771,13.894-27.6,21.78-41.275l-0.002,0.003c7.907-13.711,16.229-26.934,24.827-39.523
		c15.227-1.15,30.841-1.751,46.621-1.751h0.001c15.853,0,31.484,0.605,46.708,1.766c8.466,12.497,16.731,25.676,24.668,39.39
		c8.029,13.866,15.404,27.604,22.074,41.08C598.798,269.489,591.441,283.366,583.449,297.227L583.449,297.227L583.449,297.227z
		 M628.568,52.979c17.147,9.888,23.811,49.763,13.039,102.051c-0.686,3.337-1.459,6.735-2.302,10.179
		c-21.239-4.901-44.306-8.548-68.454-10.814c-14.069-20.035-28.648-38.249-43.283-54.016c3.934-3.785,7.864-7.394,11.777-10.799
		C577.145,56.684,612.473,43.697,628.568,52.979L628.568,52.979L628.568,52.979z"/>
	<path d="M511.999,209.848c25.251,0,45.723,20.47,45.723,45.72s-20.472,45.72-45.723,45.72c-25.25,0-45.72-20.47-45.72-45.72
		S486.749,209.848,511.999,209.848"/>
</g>
</svg>
