<?xml version="1.0" encoding="utf-8"?>
<!DOCTYPE svg PUBLIC "-//W3C//DTD SVG 1.1//EN" "http://www.w3.org/Graphics/SVG/1.1/DTD/svg11.dtd">
<svg xmlns="http://www.w3.org/2000/svg" version="1.1" x="0px" y="0px" width="1024px" height="1024px" viewBox="0 0 1024 1024" enable-background="new 0 0 1024 1024">
  <title>Xcat</title>
  <g fill="none" stroke="#000" stroke-linecap="round" stroke-linejoin="round" stroke-width="32">
    <g fill="#FB5">
      <path d="
        M 64 64
        C 64 64 128 256 64 512
        C 0 768 16 896 256 960
        C 352 992 608 992 704 960
        C 896 896 960 768 960 576
        C 960 192 768 64 768 64
        C 768 64 832 288 768 384
        C 640 320 384 320 256 384
        C 224 160 64 64 64 64
        z
      "/>
    </g>
    <g stroke-width="45">
      <path d="
        M 576 640
        c 64 -64 224 -64 288 0
      "/>
      <path d="
        M 160 640
        c 64 -64 224 -64 288 0
      "/>
    </g>
    <g stroke-width="38">
      <path d="
        M 368 768
        c -16 128 128 128 144 0
        c -16 128 128 128 144 0
      "/>
    </g>
    <g stroke-width="25">
      <path d="
        M 192 768
        c -96 16 -160 96 -160 96
      "/>
      <path d="
        M 208 832
        c -64 16 -128 96 -128 96
      "/>
      <path d="
        M 240 896
        c -32 16 -80 80 -80 80
      "/>
      <path d="
        M 800 752
        c 128 0 192 48 192 48
      "/>
      <path d="
        M 784 816
        c 112 0 176 64 176 64
      "/>
      <path d="
        M 736 880
        c 96 0 160 80 160 80
      "/>
    </g>
  </g>
</svg>
